<?xml version="1.0" encoding="utf-8"?>
<!-- Generator: Adobe Illustrator 16.0.0, SVG Export Plug-In . SVG Version: 6.00 Build 0)  -->
<!DOCTYPE svg PUBLIC "-//W3C//DTD SVG 1.1//EN" "http://www.w3.org/Graphics/SVG/1.1/DTD/svg11.dtd">
<svg version="1.1" id="Layer_1" xmlns="http://www.w3.org/2000/svg" xmlns:xlink="http://www.w3.org/1999/xlink" x="0px" y="0px"
	 width="924.301px" height="400.9px" viewBox="0 0 924.301 400.9" enable-background="new 0 0 924.301 400.9" xml:space="preserve">
<g>
	<g>
		<path fill="#63C3CE" d="M87.4,217.6L62.8,218.8C62.6,209,55.8,202.6,44.7,202.6s-17.3,5.8-17.3,14c0,8.899,6.7,11.399,22.8,15.1
			c23.9,6.1,39.6,13.6,39.6,34.3c0,24.8-19.5,35.7-42.899,35.7c-27,0-46.5-13.3-46.8-37.4l24.5-1.199c0.5,10.6,9.699,17.8,22.3,17.8
			c10.8,0,18.399-3.9,18.399-13.4c0-8.899-8.399-12.2-24-16.1c-21.1-5.3-38.5-11.4-38.5-34c0-19.2,13.601-35.7,41.5-35.7
			C69.4,181.7,86.7,195.1,87.4,217.6z"/>
		<path fill="#63C3CE" d="M184.7,259.9c0,25.3-18.3,42-42.9,42c-24.6,0-42.899-16.7-42.899-42c0-25.4,18.3-42,42.899-42
			C166.5,217.9,184.7,234.5,184.7,259.9z M122,259.9c0,14,8.101,22.3,19.8,22.3c11.7,0,19.801-8.3,19.801-22.3
			c0-14.2-8.101-22.5-19.801-22.5C130.1,237.4,122,245.7,122,259.9z"/>
		<path fill="#63C3CE" d="M237.7,240.7c-13.1,0-21.4,7.5-21.4,18.6v40.9h-22.8v-80.7h22v9.2c3.4-5.3,9.8-10,22.2-10V240.7z"/>
		<path fill="#63C3CE" d="M290.4,240.7c-13.101,0-21.4,7.5-21.4,18.6v40.9h-22.8v-80.7h22v9.2c3.4-5.3,9.8-10,22.2-10V240.7
			L290.4,240.7z"/>
		<path fill="#63C3CE" d="M308.1,339.9l20.6-47l-31.5-73.5h25.101l18.6,48l18.4-48h25.3l-51.6,120.399h-24.9V339.9z"/>
		<path fill="#63C3CE" d="M419.2,288.1c0,7.6-6.199,13.699-13.899,13.699c-7.601,0-13.7-6.1-13.7-13.699c0-7.801,6.1-13.9,13.7-13.9
			C413.001,274.2,419.2,280.3,419.2,288.1z M393.301,264.6l-1.2-81.101h26.7l-1.4,81.101H393.301z"/>
	</g>
	<g>
		<path fill="#63C3CE" d="M12.9,372.9v19.5H8v-19.5H0v-4.3h20.9v4.3H12.9z"/>
		<path fill="#63C3CE" d="M28.5,377.4c0.7-0.9,2-1.7,4.2-1.7c3.8,0,6.4,2.5,6.4,6.7v10.1h-4.7v-9.2c0-2.1-1.101-3.3-2.9-3.3
			c-1.899,0-3.1,1.3-3.1,3.3v9.2h-4.7v-24.8h4.7v9.7H28.5z"/>
		<path fill="#63C3CE" d="M47.5,385.7c0.101,2,1.3,3.3,3.4,3.3c1.6,0,2.7-0.7,3-1.8l4.7,0.2C58,390.5,54.9,392.8,51,392.8
			c-5,0-8.5-3.3-8.5-8.6s3.5-8.6,8.4-8.6c4.8,0,7.899,3.1,7.899,8.199v1.9H47.5z M47.5,382.6H54.1C54,380.6,53,379.3,50.9,379.3
			C48.9,379.3,47.6,380.5,47.5,382.6z"/>
		<path fill="#63C3CE" d="M87,384.2c0,5.2-3.3,8.6-8,8.6c-2.1,0-3.8-0.8-4.6-1.8v9.5h-4.7V376h4.4v1.7c0.899-1.1,2.6-2,4.899-2
			C83.7,375.7,87,379.1,87,384.2z M74.4,383.9v0.8c0,2.6,1.6,4.2,3.899,4.2c2.301,0,4-1.7,4-4.601c0-2.899-1.699-4.6-4-4.6
			C76,379.6,74.4,381.2,74.4,383.9z"/>
		<path fill="#63C3CE" d="M104,382.3v10.2h-4.5v-1.3c-0.899,1-2.3,1.7-4.2,1.7c-3.3,0-5.5-1.7-5.5-4.9c0-3.7,3.101-4.899,6.601-5
			l2.899-0.2v-0.6c0-1.7-0.699-2.6-2.1-2.6c-1.6,0-2.3,1.1-2.3,2.199l-4.7-0.199c0-2.9,2.6-5.9,6.9-5.9
			C101.6,375.7,104,377.9,104,382.3z M96.9,386c-1.4,0.101-2.4,0.5-2.4,1.7c0,1.1,0.8,1.5,1.9,1.5c1.7,0,3-0.9,3-2.7v-0.7L96.9,386z
			"/>
		<path fill="#63C3CE" d="M120.4,377.7V376h4.399V393.1c0,4.8-3.3,7.8-8.3,7.8c-5.2,0-7.899-2.601-8.5-6.3l4.601-0.2
			c0.199,1.6,1.6,2.6,3.699,2.6c2.301,0,3.9-1.2,3.9-3.5V391.1c-0.9,1-2.5,1.8-4.7,1.8c-4.7,0-7.899-3.4-7.899-8.601
			c0-5.199,3.3-8.6,7.899-8.6C117.9,375.7,119.6,376.5,120.4,377.7z M112.3,384.2c0,2.9,1.7,4.6,4,4.6c2.301,0,3.9-1.6,3.9-4.199
			V383.8c0-2.6-1.6-4.199-3.9-4.199C114,379.6,112.3,381.3,112.3,384.2z"/>
		<path fill="#63C3CE" d="M133.2,385.7c0.1,2,1.3,3.3,3.4,3.3c1.6,0,2.699-0.7,3-1.8l4.699,0.2c-0.6,3.1-3.699,5.399-7.6,5.399
			c-5,0-8.5-3.3-8.5-8.6s3.5-8.6,8.4-8.6c4.8,0,7.899,3.1,7.899,8.199v1.9H133.2z M133.2,382.6h6.6c-0.1-2-1.1-3.301-3.199-3.301
			C134.6,379.3,133.3,380.5,133.2,382.6z"/>
		<path fill="#63C3CE" d="M155.6,400.6L159.8,391l-6.399-15h5.1l3.8,9.8l3.801-9.8h5.199L160.7,400.6H155.6z"/>
		<path fill="#63C3CE" d="M189.6,384.2c0,5.2-3.7,8.6-8.801,8.6c-5.1,0-8.8-3.399-8.8-8.6s3.7-8.6,8.8-8.6
			C185.9,375.6,189.6,379,189.6,384.2z M176.8,384.2c0,2.9,1.7,4.6,4.101,4.6c2.399,0,4.1-1.699,4.1-4.6s-1.7-4.6-4.1-4.6
			C178.4,379.6,176.8,381.3,176.8,384.2z"/>
		<path fill="#63C3CE" d="M203.5,392.5v-1.7c-0.6,1-1.899,2-4.3,2c-3.8,0-6.1-2.5-6.1-6.5V376h4.699v9.4c0,2,0.801,3.1,2.601,3.1
			s2.8-1.3,2.8-3.2V376h4.7v16.5H203.5z"/>
		<path fill="#63C3CE" d="M228.7,380.3c-2.7,0-4.4,1.5-4.4,3.801v8.399H219.6V376h4.5v1.9c0.699-1.101,2-2,4.5-2v4.399H228.7z"/>
		<path fill="#63C3CE" d="M235.8,385.7c0.101,2,1.301,3.3,3.4,3.3c1.6,0,2.7-0.7,3-1.8l4.7,0.2c-0.601,3.1-3.7,5.399-7.601,5.399
			c-5,0-8.5-3.3-8.5-8.6s3.5-8.6,8.4-8.6c4.8,0,7.9,3.1,7.9,8.199v1.9H235.8z M235.8,382.6h6.601c-0.101-2-1.101-3.301-3.2-3.301
			C237.2,379.3,235.9,380.5,235.8,382.6z"/>
		<path fill="#63C3CE" d="M262.8,377.7V376h4.4V400.6h-4.6v-9.5c-0.9,1-2.5,1.8-4.7,1.8c-4.7,0-7.9-3.4-7.9-8.601
			c0-5.199,3.3-8.6,7.9-8.6C260.2,375.7,261.9,376.5,262.8,377.7z M254.6,384.2c0,2.9,1.699,4.6,4,4.6c2.3,0,3.899-1.6,3.899-4.199
			V383.8c0-2.6-1.6-4.199-3.899-4.199C256.3,379.6,254.6,381.3,254.6,384.2z"/>
		<path fill="#63C3CE" d="M282,392.5v-1.7c-0.6,1-1.899,2-4.3,2c-3.8,0-6.1-2.5-6.1-6.5V376h4.699v9.4c0,2,0.801,3.1,2.601,3.1
			s2.8-1.3,2.8-3.2V376h4.7v16.5H282z"/>
		<path fill="#63C3CE" d="M295,385.7c0.101,2,1.3,3.3,3.4,3.3c1.601,0,2.7-0.7,3-1.8l4.7,0.2c-0.6,3.1-3.7,5.399-7.6,5.399
			c-5.001,0-8.501-3.3-8.501-8.6s3.5-8.6,8.4-8.6c4.8,0,7.9,3.1,7.9,8.199v1.9H295z M295,382.6h6.601c-0.1-2-1.1-3.301-3.2-3.301
			C296.4,379.3,295.1,380.5,295,382.6z"/>
		<path fill="#63C3CE" d="M322.4,381l-4.6,0.3c-0.101-1.199-0.7-2-2.101-2c-1.2,0-1.899,0.5-1.899,1.4c0,1.1,1.2,1.3,3.2,1.8
			c3.3,0.9,5.6,1.9,5.6,4.9c0,3.3-2.5,5.5-6.8,5.5c-4.2,0-6.7-1.9-7-5.4l4.7-0.3c0.1,1.2,0.8,2,2.399,2c1.3,0,2.101-0.5,2.101-1.5
			s-0.601-1.3-3-1.9c-3.5-0.899-5.801-1.6-5.801-5c0-3.199,2.5-5.199,6.601-5.199C319.9,375.7,322.1,377.9,322.4,381z"/>
		<path fill="#63C3CE" d="M331.9,386.1c0,1.8,1.2,2.5,2.5,2.5c0.7,0,1.101-0.101,1.4-0.2v4.1c-0.7,0.101-1.3,0.2-2.601,0.2
			c-3.6,0-6-1.7-6-5.6v-7.2h-3v-4h3v-5.5h4.7v5.5h3.9v4h-3.9V386.1z"/>
		<path fill="#63C3CE" d="M343.1,385.7c0.1,2,1.3,3.3,3.4,3.3c1.6,0,2.699-0.7,3-1.8l4.699,0.2c-0.6,3.1-3.699,5.399-7.6,5.399
			c-5,0-8.5-3.3-8.5-8.6s3.5-8.6,8.4-8.6c4.8,0,7.899,3.1,7.899,8.199v1.9H343.1z M343.1,382.6h6.6c-0.1-2-1.1-3.301-3.199-3.301
			C344.6,379.3,343.301,380.5,343.1,382.6z"/>
		<path fill="#63C3CE" d="M370.1,392.5v-1.7c-0.9,1.101-2.6,2-4.9,2c-4.699,0-7.899-3.399-7.899-8.6s3.3-8.6,7.899-8.6
			c2.101,0,3.801,0.8,4.7,1.8v-9.7h4.601v24.8H370.1L370.1,392.5z M362.001,384.2c0,2.9,1.699,4.6,4,4.6
			c2.3,0,3.899-1.5,3.899-4.199v-0.7c0-2.601-1.6-4.2-3.899-4.2C363.6,379.6,362.001,381.3,362.001,384.2z"/>
		<path fill="#63C3CE" d="M401.7,382l-4.6,0.4c-0.2-1.7-1.5-2.8-3.3-2.8c-2.2,0-3.7,1.699-3.7,4.6s1.6,4.6,3.7,4.6
			c1.8,0,3-1,3.3-2.699l4.5,0.399c-0.6,3.9-3.8,6.3-7.8,6.3c-4.9,0-8.5-3.199-8.5-8.6s3.6-8.6,8.5-8.6
			C397.9,375.7,401.1,378,401.7,382z"/>
		<path fill="#63C3CE" d="M418.501,382.3v10.2h-4.5v-1.3c-0.9,1-2.301,1.7-4.2,1.7c-3.3,0-5.5-1.7-5.5-4.9c0-3.7,3.1-4.899,6.6-5
			l2.9-0.2v-0.6c0-1.7-0.7-2.6-2.101-2.6c-1.6,0-2.3,1.1-2.3,2.199l-4.7-0.199c0-2.9,2.601-5.9,6.9-5.9
			C416.1,375.7,418.501,377.9,418.501,382.3z M411.4,386c-1.399,0.101-2.399,0.5-2.399,1.7c0,1.1,0.8,1.5,1.899,1.5
			c1.7,0,3-0.9,3-2.7v-0.7L411.4,386z"/>
		<path fill="#63C3CE" d="M438.301,382.4v10.1h-4.7v-9.2c0-2.1-1.101-3.3-2.9-3.3c-1.899,0-3.1,1.3-3.1,3.3v9.2h-4.6V376h4.399v1.7
			c0.7-1.1,2.2-2,4.4-2C435.6,375.7,438.301,378.1,438.301,382.4z"/>
		<path fill="#63C3CE" d="M458.059,382.4v10.1h-4.699v-9.2c0-2.1-1.101-3.3-2.9-3.3c-1.9,0-3.1,1.3-3.1,3.3v9.2h-4.7V376h4.399v1.7
			c0.7-1.1,2.2-2,4.4-2C455.46,375.7,458.059,378.1,458.059,382.4z"/>
		<path fill="#63C3CE" d="M479.16,384.2c0,5.2-3.7,8.6-8.8,8.6c-5.101,0-8.801-3.399-8.801-8.6s3.7-8.6,8.801-8.6
			C475.46,375.6,479.16,379,479.16,384.2z M466.36,384.2c0,2.9,1.699,4.6,4.1,4.6s4.1-1.699,4.1-4.6s-1.699-4.6-4.1-4.6
			C467.96,379.6,466.36,381.3,466.36,384.2z"/>
		<path fill="#63C3CE" d="M488.559,386.1c0,1.8,1.2,2.5,2.5,2.5c0.7,0,1.101-0.101,1.4-0.2v4.1c-0.7,0.101-1.3,0.2-2.6,0.2
			c-3.601,0-6-1.7-6-5.6v-7.2h-3v-4h3v-5.5h4.699v5.5h3.9v4h-3.9V386.1z"/>
		<path fill="#63C3CE" d="M507.66,377.4c0.899-1,2.5-1.8,4.6-1.8c4.7,0,8,3.399,8,8.6s-3.3,8.6-8,8.6c-2.3,0-4-0.899-4.9-2v1.7
			h-4.399v-24.8h4.7V377.4L507.66,377.4z M507.66,383.9v0.7c0,2.699,1.6,4.199,3.899,4.199c2.301,0,4-1.6,4-4.6
			c0-2.9-1.699-4.6-4-4.6C509.26,379.6,507.66,381.2,507.66,383.9z"/>
		<path fill="#63C3CE" d="M527.96,385.7c0.1,2,1.3,3.3,3.4,3.3c1.6,0,2.699-0.7,3-1.8l4.699,0.2c-0.6,3.1-3.699,5.399-7.6,5.399
			c-5,0-8.5-3.3-8.5-8.6s3.5-8.6,8.4-8.6c4.8,0,7.899,3.1,7.899,8.199v1.9H527.96z M527.96,382.6h6.6c-0.1-2-1.1-3.301-3.2-3.301
			C529.36,379.3,528.059,380.5,527.96,382.6z"/>
		<path fill="#63C3CE" d="M559.559,367.6v4c-0.3,0-0.6-0.101-1.1-0.101c-1.6,0-2.8,1.101-2.8,2.601v1.8h3.8v4h-3.8v12.5h-4.601V380
			h-3v-4h3v-1.7c0-4.1,2.7-6.8,6.9-6.8C558.66,367.5,559.059,367.5,559.559,367.6z"/>
		<path fill="#63C3CE" d="M578.96,384.2c0,5.2-3.7,8.6-8.8,8.6c-5.101,0-8.8-3.399-8.8-8.6s3.699-8.6,8.8-8.6
			C575.26,375.6,578.96,379,578.96,384.2z M566.16,384.2c0,2.9,1.7,4.6,4.1,4.6c2.4,0,4.1-1.699,4.1-4.6s-1.699-4.6-4.1-4.6
			C567.86,379.6,566.16,381.3,566.16,384.2z"/>
		<path fill="#63C3CE" d="M592.86,392.5v-1.7c-0.601,1-1.9,2-4.301,2c-3.8,0-6.1-2.5-6.1-6.5V376h4.7v9.4c0,2,0.8,3.1,2.6,3.1
			s2.8-1.3,2.8-3.2V376h4.7v16.5H592.86z"/>
		<path fill="#63C3CE" d="M617.16,382.4v10.1h-4.7v-9.2c0-2.1-1.1-3.3-2.9-3.3c-1.899,0-3.1,1.3-3.1,3.3v9.2h-4.6V376h4.399v1.7
			c0.7-1.1,2.2-2,4.4-2C614.559,375.7,617.16,378.1,617.16,382.4z"/>
		<path fill="#63C3CE" d="M633.559,392.5v-1.7c-0.899,1.101-2.6,2-4.899,2c-4.7,0-7.9-3.399-7.9-8.6s3.3-8.6,7.9-8.6
			c2.1,0,3.8,0.8,4.7,1.8v-9.7h4.6v24.8H633.559L633.559,392.5z M625.46,384.2c0,2.9,1.7,4.6,4,4.6s3.9-1.5,3.9-4.199v-0.7
			c0-2.601-1.601-4.2-3.9-4.2C627.059,379.6,625.46,381.3,625.46,384.2z"/>
	</g>
	<g>
		<path fill="#FF4A2A" d="M507.4,251c3-0.6,6.3-1.5,10.2-2.899c6.9-2.5,12.3-3.7,16.2-3.7c3.899,0,9.399,1.2,16.2,3.7
			c6.8,2.399,12.1,3.6,16,3.6h0.399c3.9,0,9.3-1.2,16.2-3.6c7-2.5,12.4-3.7,16.1-3.7c3.9,0,9.4,1.2,16.4,3.7
			c6.9,2.399,12.3,3.6,16.2,3.6h0.399c3.9,0,9.2-1.2,16-3.6c6.9-2.5,12.301-3.7,16.2-3.7c3.9,0,9.3,1.2,16.2,3.7
			c6.4,2.3,11.4,3.399,15.3,3.6c-4.1-11-22.8-44.1-3.1-77.5c9-15.3,74.3-61,62.5-114.7C741.7-0.1,637.1-17.5,574.1,19.1
			c-31.3,18.199-57.2,69.899-44,76.3c13.6,6.6,40.9-30.8,61.1-15.7c14.801,11.1-36.399,48.5-24.199,56.6
			C576.4,142.6,614.501,115.1,632.7,94.9c17.4-19.3,19.301-43.5,19.301-43.5s43.399-18.2,61,10.6c14.1,23.2-21.601,49-51.9,62.101
			C548.1,173.1,512.1,239.8,507.4,251z M610.9,47.4c0,4.7-3.8,8.5-8.5,8.5s-8.5-3.8-8.5-8.5s3.8-8.5,8.5-8.5S610.9,42.7,610.9,47.4z
			"/>
		<path fill="#FF4A2A" d="M909.501,218.6c-15.4-4.301-96.5-40.5-80,11.399c7.899,25,50.5,56.5,58,87.5
			c-0.9,0.3-1.801,0.601-2.801,0.9c-15.5,5.399-21.699,5.399-37.399,0c-15.9-5.4-20.4-5.101-35.2,0c-15.8,5.399-21.9,5.399-37.4,0
			c-15.1-5.2-20.1-5.2-35.2,0c-14.899,5.2-21.199,5.399-35.699,0.6c11.699-12.6,31.3-25.8,63.399-29c31-4.1,33.2-20.6,17-50
			c-25.2-45.7,30.2-103,127.9-32.8C912.1,207.2,941.1,227.4,909.501,218.6z"/>
		<path fill="#63C3CE" d="M505.4,274.8c7.7-2.6,13.5-4,17.4-4c4.2,0,10.1,1.4,17.8,4c15.7,5.4,21.9,5.4,37.4,0
			c15.1-5.199,20.1-5.199,35.199,0c15.5,5.4,21.601,5.4,37.4,0c14.9-5.1,19.4-5.399,35.2,0c15.7,5.4,21.899,5.4,37.399,0
			c15.101-5.199,20.101-5.199,35.2,0c0.5,0.2,0.9,0.301,1.4,0.5c-29,4.101-48.4,15.7-60.9,26.801c-3.399-0.601-7.2-1.801-12.1-3.5
			c-16.2-5.601-21.9-5.301-37.2,0c-14.9,5.1-19.4,5.399-35.2,0c-15.8-5.4-21.899-5.4-37.6,0c-15.8,5.5-20.3,5.1-35.2,0
			c-15.3-5.301-21-5.601-37.2,0c-7.7,2.6-13.6,4-16.3,5.5l-0.1-1v-24.4C492.6,278.5,498.301,277.3,505.4,274.8z"/>
		<path fill="#63C3CE" d="M683.301,338.9c0.399,0,0.7,0,1.1,0c4.2,0,10.1,1.399,17.8,4c15.7,5.399,21.9,5.399,37.4,0
			c15.1-5.2,20.1-5.2,35.2,0c15.5,5.399,21.6,5.399,37.399,0c14.9-5.101,19.4-5.4,35.2,0c15.7,5.399,21.9,5.399,37.4,0
			c8.399-2.9,13.7-4.2,19.399-3.9v23.7c-6.1-0.3-11.899,1-20.6,4c-15.9,5.4-20.4,5.1-35.2,0c-16.2-5.6-21.899-5.3-37.2,0
			c-14.899,5.1-19.399,5.4-35.199,0c-15.801-5.4-21.9-5.4-37.601,0c-15.8,5.5-20.3,5.1-35.2,0c-8.399-2.9-13.899-4.3-19.899-4V338.9
			L683.301,338.9z"/>
	</g>
</g>
</svg>
