<?xml version="1.0" encoding="utf-8"?>
<!-- Generator: Adobe Illustrator 19.2.1, SVG Export Plug-In . SVG Version: 6.00 Build 0)  -->
<svg version="1.1" id="Layer_1" xmlns="http://www.w3.org/2000/svg" xmlns:xlink="http://www.w3.org/1999/xlink" x="0px" y="0px"
	 width="30px" height="30px" viewBox="0 0 30 30" style="enable-background:new 0 0 30 30;" xml:space="preserve">
<style type="text/css">
	.st0{fill:#42C2C9;}
	.st1{fill:#FFFFFF;}
</style>
<circle id="XMLID_233_" class="st0" cx="15" cy="15" r="15"/>
<path id="XMLID_225_" class="st1" d="M6.9,6.1c-0.5,0.5-2.1,2.3-2.1,4.4c0,3.4,1.3,5.2,2,6.2c2,3.1,5.6,6.2,8.1,7.4
	c1.3,0.6,3.6,1.5,6,0.7c2.4-0.7,3.8-3,3.8-3s0.7-0.8-0.3-1.9c-1-1.1-3.3-2.8-4.6-2.4c-1.2,0.4-2.2,1.9-2.6,2.2
	c-0.4,0.3-0.9,0.8-2.3,0.1c-1.4-0.8-4.9-3.7-5.1-5.2c-0.1-1.1,0.7-2.3,1.9-3.5c0.5-0.5,0.9-0.9,0.5-2.2c-0.4-1.3-2-3.3-3-3.8
	C8.4,4.7,7.3,5.7,6.9,6.1z"/>
</svg>
