<?xml version="1.0" encoding="utf-8"?>
<!-- Generator: Adobe Illustrator 19.2.1, SVG Export Plug-In . SVG Version: 6.00 Build 0)  -->
<svg version="1.1" id="Layer_1" xmlns="http://www.w3.org/2000/svg" xmlns:xlink="http://www.w3.org/1999/xlink" x="0px" y="0px"
	 width="80px" height="80px" viewBox="0 0 80 80" style="enable-background:new 0 0 80 80;" xml:space="preserve">
<style type="text/css">
	.st0{fill:#FFFFFF;}
</style>
<g id="XMLID_27_">
	<g id="XMLID_164_">
		<circle id="XMLID_290_" class="st0" cx="28.5" cy="21.6" r="5"/>
		<path id="XMLID_222_" class="st0" d="M66.3,27.9H13.7c-1.1,0-2,0.9-2,2v0.8c0,1.1,0.9,2,2,2h7.8v9.8v3.3v15.7c0,1.1,0.9,2,2,2h0.8
			c1.1,0,2-0.9,2-2V47.7h4.5v13.7c0,1.1,0.9,2,2,2h0.8c1.1,0,2-0.9,2-2V45.7v-3.3v-9.8h8.9v9.8v3.3v15.7c0,1.1,0.9,2,2,2h0.8
			c1.1,0,2-0.9,2-2V47.7h4.5v13.7c0,1.1,0.9,2,2,2h0.8c1.1,0,2-0.9,2-2V45.7v-3.3v-9.8h7.8c1.1,0,2-0.9,2-2v-0.8
			C68.2,28.8,67.4,27.9,66.3,27.9z"/>
		<circle id="XMLID_221_" class="st0" cx="51.4" cy="21.6" r="5"/>
	</g>
</g>
</svg>
