<?xml version="1.0" encoding="utf-8"?>
<!-- Generator: Adobe Illustrator 19.2.1, SVG Export Plug-In . SVG Version: 6.00 Build 0)  -->
<svg version="1.1" id="Layer_1" xmlns="http://www.w3.org/2000/svg" xmlns:xlink="http://www.w3.org/1999/xlink" x="0px" y="0px"
	 width="30px" height="30px" viewBox="0 0 30 30" style="enable-background:new 0 0 30 30;" xml:space="preserve">
<style type="text/css">
	.st0{fill:#6FC4CD;}
	.st1{fill:#FFFFFF;}
</style>
<g id="XMLID_588_">
	<path id="XMLID_610_" class="st0" d="M15.1,0C6.8,0,0.2,6.7,0.2,15c0,4.6,2,8.8,5.6,11.7c2.7,2.1,5.9,3.3,9.3,3.3
		c3.4,0,6.6-1.1,9.3-3.3C28,23.8,30,19.6,30,15C30,6.7,23.3,0,15.1,0z"/>
	<g id="XMLID_591_">
		<path id="XMLID_609_" class="st1" d="M9.6,20.2c-0.8-0.7-1.9-1.1-3-1.1c-1,0-2,0.4-2.8,1c0.7,1.6,1.7,3,3.1,4.2
			C7.4,22.6,8.3,21.2,9.6,20.2z"/>
		<path id="XMLID_607_" class="st1" d="M15.1,19c-3.5,0-6.6,2.4-7.5,5.8c2.2,1.7,4.7,2.5,7.5,2.5c2.7,0,5.3-0.9,7.5-2.5
			C21.6,21.4,18.6,19,15.1,19z"/>
		<path id="XMLID_606_" class="st1" d="M20.6,20.2c1.2,1,2.2,2.4,2.7,4.1c1.3-1.2,2.4-2.6,3.1-4.2c-0.8-0.7-1.8-1-2.8-1
			C22.4,19,21.4,19.4,20.6,20.2z"/>
		<path id="XMLID_604_" class="st1" d="M6.6,17.8c1.7,0,3.1-1.4,3.1-3.1s-1.4-3.1-3.1-3.1c-1.7,0-3.1,1.4-3.1,3.1
			C3.6,16.4,4.9,17.8,6.6,17.8z"/>
		<path id="XMLID_603_" class="st1" d="M23.5,17.8c1.7,0,3.1-1.4,3.1-3.1s-1.4-3.1-3.1-3.1c-1.7,0-3.1,1.4-3.1,3.1
			C20.4,16.4,21.8,17.8,23.5,17.8z"/>
		<path id="XMLID_602_" class="st1" d="M15.1,17.8c2.7,0,4.9-2.2,4.9-4.9S17.8,8,15.1,8c-2.7,0-4.9,2.2-4.9,4.9S12.4,17.8,15.1,17.8
			z"/>
	</g>
</g>
</svg>
