<?xml version="1.0" encoding="utf-8"?>
<!-- Generator: Adobe Illustrator 19.2.1, SVG Export Plug-In . SVG Version: 6.00 Build 0)  -->
<svg version="1.1" id="Layer_1" xmlns="http://www.w3.org/2000/svg" xmlns:xlink="http://www.w3.org/1999/xlink" x="0px" y="0px"
	 width="30px" height="30px" viewBox="0 0 30 30" style="enable-background:new 0 0 30 30;" xml:space="preserve">
<style type="text/css">
	.st0{fill:#F58445;}
	.st1{fill:#FFFFFF;}
</style>
<ellipse id="XMLID_221_" class="st0" cx="15" cy="14.9" rx="15" ry="14.9"/>
<g id="XMLID_77_">
	<ellipse id="XMLID_220_" class="st1" cx="15.8" cy="5.6" rx="1.9" ry="1.9"/>
	<path id="XMLID_80_" class="st1" d="M21.4,14.2L21.4,14.2L21.4,14.2C21.4,14.2,21.4,14.2,21.4,14.2l-2.7-1.8c0,0-1.5-2.9-1.8-3.7
		c-0.4-0.8-1.6-1.2-2.7-0.5c-0.8,0.6-2.8,2.1-3.7,2.8c-0.2,0.2-0.3,0.3-0.4,0.7c-0.1,0.4-0.8,3.4-0.8,3.4l0,0c0,0.1,0,0.1,0,0.2
		c0,0.5,0.4,0.8,0.8,0.8c0.4,0,0.7-0.3,0.8-0.6l0,0l0.7-3.2l1.3-0.9L11,20.1l-2.6,4.1l0,0c-0.1,0.2-0.2,0.4-0.2,0.7
		c0,0.7,0.6,1.3,1.3,1.3c0.5,0,0.9-0.2,1.1-0.6l0,0c0,0,2.5-4.3,2.7-4.5c0.1-0.2,0.2-0.5,0.3-0.8c0.1-0.3,0.6-2.5,0.6-2.5l2.7,2.9
		l0.8,4.4c0,0.1,0,0.1,0,0.2l0,0l0,0c0.1,0.5,0.6,0.9,1.2,0.9c0.7,0,1.3-0.6,1.3-1.3c0-0.1,0-0.2,0-0.3l0,0c0,0-0.9-4.3-0.9-4.5
		c0-0.2-0.2-0.5-0.3-0.6c-0.1-0.2-3.1-3.6-3.1-3.6l0.8-3.9c0,0,0.5,1.1,0.6,1.3c0.1,0.2,0.2,0.3,0.3,0.4c0.2,0.1,2.8,2.1,2.8,2.1
		l0,0c0.1,0.1,0.3,0.1,0.5,0.1c0.5,0,0.8-0.4,0.8-0.8C21.7,14.6,21.6,14.4,21.4,14.2z"/>
</g>
</svg>
