<?xml version="1.0" encoding="utf-8"?>
<!-- Generator: Adobe Illustrator 19.2.1, SVG Export Plug-In . SVG Version: 6.00 Build 0)  -->
<svg version="1.1" id="Layer_1" xmlns="http://www.w3.org/2000/svg" xmlns:xlink="http://www.w3.org/1999/xlink" x="0px" y="0px"
	 width="30px" height="30px" viewBox="0 0 30 30" style="enable-background:new 0 0 30 30;" xml:space="preserve">
<style type="text/css">
	.st0{fill:#E95453;}
	.st1{fill:#FFFFFF;}
</style>
<g id="XMLID_67_">
	<path id="XMLID_387_" class="st0" d="M15,30c8.3,0,15-6.7,15-15c0-8.3-6.7-15-15-15C6.7,0,0,6.7,0,15C0,23.3,6.7,30,15,30"/>
	<path id="XMLID_385_" class="st1" d="M23.8,15.7c-1.2,1.2-2.6,2.1-4.1,2.7c-1.5,0.6-3.1,0.9-4.7,0.9c-1.6,0-3.2-0.3-4.7-0.9
		c-1.5-0.6-2.9-1.5-4.1-2.7c-1.2-1.2-2.1-2.6-2.7-4.1c-0.1-0.3-0.3-0.7-0.4-1h2.2c0.5,1.3,1.3,2.6,2.4,3.6c2,2,4.5,3,7.3,3
		c2.4,0,4.7-0.8,6.5-2.3l-4.3-4.3h3l2.9,2.9c0.7-0.9,1.3-1.8,1.7-2.9h2.2c-0.1,0.3-0.2,0.7-0.4,1C25.9,13.2,25,14.6,23.8,15.7z"/>
</g>
</svg>
