<?xml version="1.0" encoding="iso-8859-1"?>
<!-- Generator: Adobe Illustrator 19.2.1, SVG Export Plug-In . SVG Version: 6.00 Build 0)  -->
<svg version="1.1" xmlns="http://www.w3.org/2000/svg" xmlns:xlink="http://www.w3.org/1999/xlink" x="0px" y="0px"
	 viewBox="0 0 97.142 97.14" style="enable-background:new 0 0 97.142 97.14;" xml:space="preserve">
<g id="Layer_1_1_">
	<path style="fill:#FFFFFF;" d="M-392.084,48.57c0,26.825-21.746,48.57-48.57,48.57c-26.825,0-48.571-21.745-48.571-48.57
		c0-26.824,21.746-48.57,48.571-48.57C-413.83,0-392.084,21.746-392.084,48.57"/>
	<path style="fill:#FFFFFF;" d="M-229.009,48.57c0,26.825-21.746,48.57-48.57,48.57c-26.825,0-48.571-21.745-48.571-48.57
		c0-26.824,21.746-48.57,48.571-48.57C-250.755,0-229.009,21.746-229.009,48.57"/>
	<path style="fill:#FFFFFF;" d="M-65.934,48.57c0,26.825-21.745,48.57-48.57,48.57s-48.571-21.745-48.571-48.57
		c0-26.824,21.746-48.57,48.571-48.57S-65.934,21.746-65.934,48.57"/>
	<path style="fill:#FFFFFF;" d="M97.142,48.57c0,26.825-21.746,48.57-48.57,48.57C21.746,97.14,0,75.395,0,48.57
		C0,21.746,21.746,0,48.571,0C75.396,0,97.142,21.746,97.142,48.57"/>
	<path style="fill:#41C0C8;" d="M-121.605,37.664c0-0.185-0.071-0.36-0.203-0.492c-0.263-0.264-0.722-0.263-0.984,0l-2.643,2.642
		l-1.074-1.074c-0.132-0.132-0.306-0.204-0.491-0.204c-0.186,0-0.36,0.072-0.493,0.204c-0.131,0.131-0.202,0.306-0.202,0.491
		c0,0.187,0.071,0.36,0.202,0.493l1.568,1.566c0.262,0.264,0.722,0.262,0.982,0l3.135-3.134
		C-121.677,38.023-121.605,37.85-121.605,37.664"/>
	<path style="fill:#41C0C8;" d="M-102.007,38.535h-16.406c-0.385,0-0.696,0.312-0.696,0.695c0,0.383,0.312,0.696,0.696,0.696h16.406
		c0.384,0,0.694-0.313,0.695-0.697C-101.312,38.847-101.623,38.535-102.007,38.535"/>
	<path style="fill:#EF5351;" d="M-121.605,44.523c0-0.186-0.071-0.359-0.203-0.491c-0.263-0.264-0.722-0.264-0.984,0l-2.643,2.641
		l-1.074-1.074c-0.132-0.132-0.306-0.204-0.491-0.204c-0.186,0-0.36,0.072-0.493,0.204c-0.131,0.132-0.202,0.306-0.202,0.492
		c0,0.186,0.071,0.359,0.202,0.492l1.568,1.567c0.262,0.263,0.722,0.261,0.982,0l3.135-3.135
		C-121.677,44.884-121.605,44.709-121.605,44.523"/>
	<path style="fill:#41C0C8;" d="M-102.007,45.395h-16.406c-0.385,0-0.696,0.312-0.696,0.695c0,0.384,0.312,0.696,0.696,0.696h16.406
		c0.384,0,0.694-0.312,0.695-0.696C-101.312,45.707-101.623,45.395-102.007,45.395"/>
	<path style="fill:#41C0C8;" d="M-121.605,51.383c0-0.185-0.071-0.359-0.203-0.491c-0.263-0.264-0.722-0.264-0.984,0l-2.643,2.642
		l-1.074-1.075c-0.132-0.131-0.306-0.203-0.491-0.203c-0.186,0-0.36,0.072-0.493,0.203c-0.131,0.132-0.202,0.307-0.202,0.492
		c0,0.186,0.071,0.361,0.202,0.493l1.568,1.566c0.262,0.263,0.722,0.262,0.982,0l3.135-3.134
		C-121.677,51.743-121.605,51.57-121.605,51.383"/>
	<path style="fill:#41C0C8;" d="M-102.007,52.255h-16.406c-0.385,0-0.696,0.311-0.696,0.695c0,0.383,0.312,0.696,0.696,0.696h16.406
		c0.384,0,0.694-0.313,0.695-0.697C-101.312,52.566-101.623,52.255-102.007,52.255"/>
	<path style="fill:#EF5351;" d="M-140.029,65.699h51.05c1.616,0,1.635-1.567,1.635-1.635V63.05h-22.596v0.394
		c0,0.466-0.379,0.845-0.845,0.845h-7.438c-0.465,0-0.844-0.379-0.844-0.845V63.05h-22.596v1.014
		C-141.663,64.131-141.637,65.699-140.029,65.699"/>
	<path style="fill:#EF5351;" d="M-91.177,33.075c0-0.901-0.733-1.635-1.635-1.635h-43.387c-0.9,0-1.635,0.734-1.635,1.635v26.031
		c0,0.902,0.734,1.635,1.635,1.635h43.387c0.901,0,1.635-0.733,1.635-1.635V33.075z M-93.207,58.711h-42.596V33.47h42.596V58.711z"
		/>
	<path style="fill:#41C0C8;" d="M-425.287,57.17v2.628h-2.89v-2.675c-3.248-0.478-5.47-2.412-5.519-5.613l3.751-0.191
		c0.072,1.625,1.481,2.724,3.417,2.724c1.648,0,2.818-0.598,2.818-2.055c0-1.361-1.29-1.863-3.68-2.459
		c-3.224-0.814-5.898-1.745-5.898-5.209c0-2.626,1.672-4.945,5.111-5.399v-2.603h2.89v2.675c2.962,0.502,4.898,2.436,4.969,5.351
		l-3.775,0.192c-0.022-1.506-1.074-2.486-2.771-2.486c-1.695,0-2.652,0.885-2.652,2.15c0,1.363,1.028,1.745,3.489,2.317
		c3.655,0.931,6.068,2.078,6.068,5.256C-419.959,55.117-422.277,56.812-425.287,57.17"/>
	<path style="fill:#EF5351;" d="M-437.678,48.57c0,10.354-4.885,16.074-11.816,16.074c-7.014,0-11.857-5.72-11.857-16.074
		c0-10.396,4.843-16.074,11.857-16.074C-442.563,32.496-437.678,38.174-437.678,48.57 M-454.796,48.57
		c0,6.763,1.628,10.354,5.302,10.354c3.633,0,5.261-3.591,5.261-10.354c0-6.764-1.628-10.354-5.261-10.354
		C-453.168,38.216-454.796,41.806-454.796,48.57"/>
	<path style="fill:#41C0C8;" d="M48.572,60.162c-0.526,0-0.894,0.366-0.894,0.891c0,0.525,0.367,0.891,0.894,0.891
		c0.523,0,0.891-0.366,0.891-0.891C49.463,60.528,49.096,60.162,48.572,60.162"/>
	<path style="fill:#41C0C8;" d="M36.089,47.679c-0.526,0-0.893,0.366-0.893,0.891c0,0.526,0.367,0.892,0.893,0.892
		c0.523,0,0.892-0.366,0.892-0.892C36.98,48.045,36.612,47.679,36.089,47.679"/>
	<path style="fill:#41C0C8;" d="M48.572,36.979c0.523,0,0.891-0.366,0.891-0.892c0-0.526-0.367-0.891-0.891-0.891
		c-0.526,0-0.894,0.365-0.894,0.891C47.679,36.613,48.046,36.979,48.572,36.979"/>
	<path style="fill:#41C0C8;" d="M61.056,47.679c-0.527,0-0.893,0.366-0.893,0.891c0,0.526,0.365,0.892,0.893,0.892
		c0.523,0,0.891-0.366,0.891-0.892C61.946,48.045,61.579,47.679,61.056,47.679"/>
	<path style="fill:#EF5351;" d="M48.572,27.312c-11.724,0-21.261,9.536-21.261,21.258c0,11.724,9.537,21.259,21.261,21.259
		c11.723,0,21.259-9.535,21.259-21.259C69.831,36.848,60.295,27.312,48.572,27.312 M48.572,68.045
		c-10.741,0-19.478-8.736-19.478-19.476c0-10.738,8.736-19.475,19.478-19.475c10.739,0,19.475,8.737,19.475,19.475
		C68.047,59.31,59.312,68.045,48.572,68.045"/>
	<path style="fill:#41C0C8;" d="M49.463,45.837v-5.808c0-0.526-0.367-0.892-0.891-0.892c-0.526,0-0.894,0.366-0.894,0.892v5.808
		c-0.855,0.301-1.541,0.987-1.839,1.842h-5.809c-0.526,0-0.894,0.366-0.894,0.892c0,0.525,0.367,0.892,0.894,0.892h5.809
		c0.417,1.151,1.539,1.97,2.732,1.97c1.578,0,2.86-1.283,2.86-2.863C51.433,47.377,50.614,46.256,49.463,45.837 M48.572,49.649
		c-0.597,0-1.08-0.482-1.08-1.079c0-0.594,0.483-1.078,1.08-1.078c0.596,0,1.078,0.484,1.078,1.078
		C49.65,49.167,49.168,49.649,48.572,49.649"/>
	<path style="fill:#EF5351;" d="M48.572,31.252c-9.55,0-17.318,7.771-17.318,17.318c0,9.55,7.769,17.317,17.318,17.317
		c9.548,0,17.315-7.769,17.315-17.317C65.888,39.022,58.12,31.252,48.572,31.252 M48.572,64.103
		c-8.566,0-15.534-6.967-15.534-15.533c0-8.565,6.968-15.532,15.534-15.532c8.564,0,15.532,6.967,15.532,15.532
		C64.104,57.136,57.137,64.103,48.572,64.103"/>
	<path style="fill:#EF5351;" d="M-253.006,50.07h-32.934c-0.829,0-1.5-0.671-1.5-1.5c0-0.829,0.671-1.5,1.5-1.5h32.934
		c0.829,0,1.5,0.671,1.5,1.5C-251.506,49.399-252.178,50.07-253.006,50.07"/>
	<path style="fill:#EF5351;" d="M-253.006,36.073h-32.934c-0.829,0-1.5-0.671-1.5-1.5c0-0.829,0.671-1.5,1.5-1.5h32.934
		c0.829,0,1.5,0.671,1.5,1.5C-251.506,35.402-252.178,36.073-253.006,36.073"/>
	<path style="fill:#EF5351;" d="M-253.006,64.066h-32.934c-0.829,0-1.5-0.671-1.5-1.5c0-0.829,0.671-1.5,1.5-1.5h32.934
		c0.829,0,1.5,0.671,1.5,1.5C-251.506,63.396-252.178,64.066-253.006,64.066"/>
	<path style="fill:#41C0C8;" d="M-260.78,65.86c-1.819,0-3.294-1.474-3.294-3.293c0-1.819,1.474-3.294,3.294-3.294
		c1.819,0,3.293,1.475,3.293,3.294C-257.487,64.386-258.961,65.86-260.78,65.86"/>
	<path style="fill:#41C0C8;" d="M-275.941,51.863c-1.819,0-3.293-1.475-3.293-3.293c0-1.819,1.474-3.294,3.293-3.294
		c1.819,0,3.293,1.475,3.293,3.294C-272.648,50.388-274.122,51.863-275.941,51.863"/>
	<path style="fill:#41C0C8;" d="M-260.78,37.866c-1.819,0-3.294-1.474-3.294-3.293c0-1.819,1.474-3.294,3.294-3.294
		c1.819,0,3.293,1.475,3.293,3.294C-257.487,36.393-258.961,37.866-260.78,37.866"/>
	<path style="fill:#41C0C8;" d="M-297.127,54.07c-3.033,0-5.5-2.467-5.5-5.5c0-3.033,2.467-5.5,5.5-5.5c3.033,0,5.5,2.467,5.5,5.5
		C-291.627,51.604-294.094,54.07-297.127,54.07 M-297.127,45.07c-1.93,0-3.5,1.57-3.5,3.5c0,1.93,1.57,3.5,3.5,3.5
		c1.93,0,3.5-1.57,3.5-3.5C-293.627,46.64-295.197,45.07-297.127,45.07"/>
	<path style="fill:#41C0C8;" d="M-292.627,68.067h-9c-0.552,0-1-0.448-1-1v-9c0-0.553,0.448-1,1-1h9c0.552,0,1,0.447,1,1v9
		C-291.627,67.619-292.075,68.067-292.627,68.067 M-300.627,66.067h7v-7h-7V66.067z"/>
	<path style="fill:#41C0C8;" d="M-292.102,40.073h-10.051c-0.354,0-0.683-0.189-0.862-0.494c-0.18-0.306-0.184-0.684-0.011-0.993
		l5.026-9c0.176-0.317,0.51-0.513,0.873-0.513c0.362,0,0.696,0.196,0.873,0.513l5.025,9c0.173,0.309,0.169,0.688-0.011,0.993
		C-291.419,39.885-291.747,40.073-292.102,40.073 M-300.448,38.073h6.643l-3.321-5.949L-300.448,38.073z"/>
</g>
<g id="Layer_1">
</g>
</svg>
