<?xml version="1.0" encoding="utf-8"?>
<!-- Generator: Adobe Illustrator 19.2.1, SVG Export Plug-In . SVG Version: 6.00 Build 0)  -->
<svg version="1.1" id="Layer_1" xmlns="http://www.w3.org/2000/svg" xmlns:xlink="http://www.w3.org/1999/xlink" x="0px" y="0px"
	 width="26.5px" height="25px" viewBox="0 0 26.5 25" style="enable-background:new 0 0 26.5 25;" xml:space="preserve">
<style type="text/css">
	.st0{fill:#939598;}
</style>
<path id="XMLID_190_" class="st0" d="M10.4,25c-2.8,0-5-2.3-5-5.1c0-2.8,2.3-5,5-5c1,0,2,0.3,2.9,0.9l3.3-2.2
	c-0.1-0.4-0.1-0.8-0.1-1.1c0-0.1,0-0.2,0-0.3L8.6,8.6c-1,0.9-2.2,1.4-3.5,1.4c-2.8,0-5-2.3-5-5c0-2.8,2.3-5,5-5s5,2.3,5,5
	c0,0.1,0,0.2,0,0.3l7.8,3.6c0.9-0.9,2.2-1.5,3.5-1.5c2.8,0,5,2.3,5,5c0,1.3-0.4,2.5-1.4,3.5c-1,1-2.3,1.6-3.7,1.6
	c-1,0-2-0.3-2.9-0.9l-3.3,2.2c0.1,0.4,0.1,0.8,0.1,1.1C15.5,22.7,13.1,25,10.4,25z M10.4,15.9c-2.2,0-4,1.8-4,4c0,2.2,1.8,4,4,4
	c2.2,0,4-1.8,4-4c0-0.4-0.1-0.8-0.2-1.2l-0.1-0.4l4.5-3l0.3,0.2c0.7,0.6,1.6,0.9,2.5,0.9c1.1,0,2.2-0.5,2.9-1.2
	c0.7-0.8,1.1-1.7,1.1-2.8c0-2.2-1.8-4-4-4c-1.1,0-2.2,0.5-3,1.4l-0.3,0.3L9,6L9,5.5c0-0.1,0-0.3,0-0.4c0-2.2-1.8-4-4-4S1,2.8,1,5
	c0,2.2,1.8,4,4,4c1.2,0,2.3-0.5,3-1.4l0.3-0.3l9.2,4.2l-0.1,0.5c0,0.1,0,0.3,0,0.4c0,0.4,0.1,0.8,0.2,1.2l0.1,0.4l-4.5,3l-0.3-0.2
	C12.2,16.2,11.3,15.9,10.4,15.9z"/>
</svg>
