<?xml version="1.0" encoding="utf-8"?>
<!-- Generator: Adobe Illustrator 19.2.1, SVG Export Plug-In . SVG Version: 6.00 Build 0)  -->
<svg version="1.1" id="Layer_1" xmlns="http://www.w3.org/2000/svg" xmlns:xlink="http://www.w3.org/1999/xlink" x="0px" y="0px"
	 width="30px" height="30px" viewBox="0 0 30 30" style="enable-background:new 0 0 30 30;" xml:space="preserve">
<style type="text/css">
	.st0{fill:#6FC4CD;}
	.st1{fill:#FFFFFF;}
</style>
<g id="XMLID_62_">
	<path id="XMLID_495_" class="st0" d="M15,0C6.8,0,0,6.8,0,15s6.8,15,15,15c8.2,0,15-6.8,15-15S23.2,0,15,0z"/>
	<g id="XMLID_388_">
		<circle id="XMLID_451_" class="st1" cx="10.7" cy="8.1" r="1.9"/>
		<path id="XMLID_394_" class="st1" d="M24.9,10.5H5.1c-0.4,0-0.7,0.3-0.7,0.7v0.3c0,0.4,0.3,0.7,0.7,0.7h2.9v3.7v1.3v5.9
			c0,0.4,0.3,0.7,0.7,0.7h0.3c0.4,0,0.7-0.3,0.7-0.7v-5.2h1.7V23c0,0.4,0.3,0.7,0.7,0.7h0.3c0.4,0,0.7-0.3,0.7-0.7v-5.9v-1.3v-3.7
			h3.3v3.7v1.3V23c0,0.4,0.3,0.7,0.7,0.7h0.3c0.4,0,0.7-0.3,0.7-0.7v-5.1h1.7V23c0,0.4,0.3,0.7,0.7,0.7h0.3c0.4,0,0.7-0.3,0.7-0.7
			v-5.9v-1.3v-3.7h2.9c0.4,0,0.7-0.3,0.7-0.7v-0.3C25.6,10.8,25.3,10.5,24.9,10.5z"/>
		<circle id="XMLID_393_" class="st1" cx="19.3" cy="8.1" r="1.9"/>
	</g>
</g>
</svg>
