<?xml version="1.0" encoding="utf-8"?>
<!-- Generator: Adobe Illustrator 19.2.1, SVG Export Plug-In . SVG Version: 6.00 Build 0)  -->
<svg version="1.1" id="Layer_1" xmlns="http://www.w3.org/2000/svg" xmlns:xlink="http://www.w3.org/1999/xlink" x="0px" y="0px"
	 width="30px" height="30px" viewBox="0 0 30 30" style="enable-background:new 0 0 30 30;" xml:space="preserve">
<style type="text/css">
	.st0{fill:#6FC4CD;}
	.st1{fill:#FFFFFF;}
</style>
<g id="XMLID_512_">
	<path id="XMLID_601_" class="st0" d="M15,0C6.7,0,0,6.7,0,15c0,4.6,2.1,8.8,5.6,11.7C8.3,28.9,11.6,30,15,30c3.5,0,6.7-1.1,9.4-3.3
		C27.9,23.8,30,19.6,30,15C30,6.7,23.3,0,15,0z"/>
	<path id="XMLID_600_" class="st1" d="M15,19c-3.6,0-6.6,2.4-7.5,5.8c2.2,1.7,4.8,2.5,7.5,2.5c2.7,0,5.3-0.9,7.5-2.5
		C21.6,21.4,18.5,19,15,19z"/>
	<path id="XMLID_599_" class="st1" d="M15,17.8c2.7,0,4.9-2.2,4.9-4.9S17.7,8,15,8s-4.9,2.2-4.9,4.9S12.3,17.8,15,17.8z"/>
</g>
</svg>
