<svg id="Layer_1" data-name="Layer 1" xmlns="http://www.w3.org/2000/svg" viewBox="0 0 15 14.99"><defs><style>.cls-1{fill:#a9a9a9;}</style></defs><title>turnOff</title><g id="_Group_" data-name="&lt;Group&gt;"><path id="_Path_" data-name="&lt;Path&gt;" class="cls-1" d="M517.15,232a7.51,7.51,0,0,1-5.39-12.76,0.88,0.88,0,0,1,1.25,1.24,5.8,5.8,0,0,0,.05,8.06,5.72,5.72,0,0,0,4.09,1.69,5.65,5.65,0,0,0,4-1.66,5.82,5.82,0,0,0,.08-8.09,0.88,0.88,0,0,1,1.25-1.24,7.61,7.61,0,0,1-.08,10.57A7.4,7.4,0,0,1,517.15,232Z" transform="translate(-509.62 -217.01)"/><path id="_Path_2" data-name="&lt;Path&gt;" class="cls-1" d="M517,225.83a1,1,0,0,1-1-.88v-7.06a1,1,0,0,1,2,0v7.06A1,1,0,0,1,517,225.83Z" transform="translate(-509.62 -217.01)"/></g></svg>